<svg width="1176" height="610" viewBox="0 0 1176 610" fill="none" xmlns="http://www.w3.org/2000/svg">
<path d="M94 271.5L822.5 289.239L561.268 69.1839C554.577 61.2415 551.11 51.0764 551.551 40.6993C551.993 30.3222 556.312 20.4889 563.654 13.1445C570.996 5.80016 580.826 1.47962 591.2 1.0376C601.573 0.595573 611.735 4.06423 619.674 10.7575L884.702 275.875C888.595 279.679 891.688 284.222 893.8 289.239C895.912 294.256 897 299.645 897 305.088H1C1.00013 278.5 43.5 271.5 94 271.5ZM94 271.5L1100.5 289.239L839.268 69.1839C832.577 61.2415 829.11 51.0764 829.551 40.6993C829.993 30.3222 834.312 20.4889 841.654 13.1445C848.996 5.80016 858.826 1.47962 869.2 1.0376C879.573 0.595573 889.735 4.06423 897.674 10.7575L1162.7 275.875C1166.59 279.679 1169.69 284.222 1171.8 289.239C1173.91 294.256 1175 299.645 1175 305.088H279C279 278.5 43.5 271.5 94 271.5ZM94 338.588L822.5 320.849L561.268 540.904C554.577 548.846 551.11 559.011 551.551 569.389C551.993 579.766 556.312 589.599 563.654 596.943C570.996 604.288 580.826 608.608 591.2 609.05C601.573 609.492 611.735 606.024 619.674 599.33L884.702 334.213C888.595 330.409 891.688 325.865 893.8 320.849C895.912 315.832 897 310.443 897 305H1C1.00013 331.588 43.5 338.588 94 338.588ZM94 338.588L1100.5 320.849L839.268 540.904C832.577 548.846 829.11 559.011 829.551 569.389C829.993 579.766 834.312 589.599 841.654 596.943C848.996 604.288 858.826 608.608 869.2 609.05C879.573 609.492 889.735 606.024 897.674 599.33L1162.7 334.213C1166.59 330.409 1169.69 325.865 1171.8 320.849C1173.91 315.832 1175 310.443 1175 305H279C279 331.588 43.5 338.588 94 338.588Z" stroke="black"/>
</svg>
