<svg width="693" height="610" viewBox="0 0 693 610" fill="none" xmlns="http://www.w3.org/2000/svg">
<path d="M346.486 305.088C346.486 299.645 348.598 294.517 346.486 289.5M346.486 305.088H298.986L10.7542 69.1839C4.06325 61.2415 0.59571 51.0764 1.03758 40.6993C1.47946 30.3222 5.79849 20.4889 13.1404 13.1445C20.4822 5.80016 30.3121 1.47962 40.6857 1.0376C51.0593 0.595573 61.221 4.06423 69.1606 10.7575L334.188 275.875C338.081 279.679 344.374 284.483 346.486 289.5M346.486 305.088C346.486 299.645 344.374 294.517 346.486 289.5M346.486 305.088H393.986L682.218 69.1839C688.909 61.2415 692.377 51.0764 691.935 40.6993C691.493 30.3222 687.174 20.4889 679.832 13.1445C672.49 5.80016 662.66 1.47962 652.287 1.0376C641.913 0.595573 631.752 4.06423 623.812 10.7575L358.785 275.875C354.892 279.679 348.598 284.483 346.486 289.5M334.674 334.213L69.6469 599.33C61.7073 606.024 51.5456 609.492 41.172 609.05C30.7985 608.608 20.9686 604.288 13.6267 596.943C6.28482 589.599 1.96578 579.766 1.52391 569.389C1.08204 559.011 4.54958 548.846 11.2405 540.904L299.473 305H346.972C346.972 310.443 349.084 315.571 346.972 320.588C344.86 325.605 338.567 330.409 334.674 334.213ZM358.785 334.213L623.812 599.33C631.752 606.024 641.913 609.492 652.287 609.05C662.66 608.608 672.49 604.288 679.832 596.943C687.174 589.599 691.493 579.766 691.935 569.389C692.377 559.011 688.909 548.846 682.218 540.904L393.986 305H346.487C346.487 310.443 344.375 315.571 346.487 320.588C348.599 325.605 354.892 330.409 358.785 334.213Z" stroke="black"/>
</svg>
